<?xml version="1.0" encoding="utf-8"?>
<!-- Generator: Adobe Illustrator 16.0.0, SVG Export Plug-In . SVG Version: 6.00 Build 0)  -->
<!DOCTYPE svg PUBLIC "-//W3C//DTD SVG 1.1//EN" "http://www.w3.org/Graphics/SVG/1.1/DTD/svg11.dtd">
<svg version="1.1" id="Layer_1" xmlns="http://www.w3.org/2000/svg" xmlns:xlink="http://www.w3.org/1999/xlink" x="0px" y="0px"
	 width="841.89px" height="755px" viewBox="0 0 841.89 755" enable-background="new 0 0 841.89 755" xml:space="preserve">
<g>
	<g>
		<path d="M693.771,460.66c0,9.055-7.34,16.395-16.395,16.395H568.071c-9.057,0-16.396-7.34-16.396-16.395V351.355
			c0-9.057,7.34-16.396,16.396-16.396h109.305c9.055,0,16.395,7.34,16.395,16.396V460.66z"/>
		<polygon points="583.354,432.865 583.153,434.652 582.046,444.508 586.687,447.186 594.696,441.311 596.149,440.244 
			596.149,440.242 583.356,432.863 		"/>
		<circle cx="603.698" cy="381.205" r="10.924"/>
		<path fill="#FFFFFF" d="M625.835,385.777v-4.572c0-12.354-10.016-22.369-22.369-22.369s-22.369,10.016-22.369,22.369
			c0,10.891,7.783,19.959,18.09,21.955l-14.383,24.582l-2.666,4.559l-0.025,0.043c-0.063,0.107-0.105,0.18-0.07,0.297l-0.139,1.291
			l-1.982,18.551c-0.006,0.189-0.006,0.189,0.123,0.412l0.111,0.162l0.313,0.082c0.824,0.086,11.768-8.268,15.5-11.094
			c0.465-0.352,0.826-0.623,1.033-0.777c0.027-0.049,0.086-0.086,0.143-0.131c0.029-0.023,0.059-0.043,0.08-0.078l2.619-4.539
			l8.574-14.672v31.33h8.973v-49.9C617.39,396.189,620.69,389.877,625.835,385.777z M596.149,440.244l-1.453,1.066l-8.01,5.875
			l-4.641-2.678l1.107-9.855l0.201-1.787l0.002-0.002l12.793,7.379V440.244z M603.698,392.129c-6.033,0-10.926-4.891-10.926-10.924
			s4.893-10.924,10.926-10.924s10.924,4.891,10.924,10.924S609.731,392.129,603.698,392.129z"/>
		<circle cx="641.417" cy="403.529" r="10.758"/>
		<path fill="#FFFFFF" d="M674.522,431.758l-12.24-14.582c-1.973,3.834-5.23,6.896-9.205,8.621l11.799,14.059
			c1.174,1.398,3.262,1.58,4.66,0.406l4.578-3.842C675.515,435.244,675.696,433.158,674.522,431.758z"/>
		<path fill="#FFFFFF" d="M641.417,382.014c-5.186,0-9.949,1.797-13.711,4.795c-5.066,4.035-8.316,10.252-8.316,17.232v49.137h8.316
			h8.834V425.52c1.57,0.355,3.201,0.549,4.877,0.549c12.164,0,22.027-9.863,22.027-22.027
			C663.444,391.875,653.581,382.014,641.417,382.014z M641.417,414.287c-5.941,0-10.758-4.816-10.758-10.758
			s4.816-10.758,10.758-10.758c5.939,0,10.756,4.816,10.756,10.758S647.356,414.287,641.417,414.287z"/>
		<path fill="#FFFFFF" stroke="#FFFFFF" stroke-miterlimit="10" d="M633.528,403.568c0,2.051,0.688,3.936,1.834,5.455l1.303-1.303
			c-0.824-1.178-1.313-2.607-1.313-4.152c0-2.029,0.836-3.859,2.18-5.176l-1.291-1.289
			C634.567,398.748,633.528,401.035,633.528,403.568z"/>
		<g>
			<path d="M539.704,525.884h-6.957V505.48c0-3.954,1.523-7.091,4.57-9.41c2.037-1.441,4.572-2.163,7.605-2.163
				c4.459,0,7.834,1.613,10.123,4.839c1.338,2.007,2.006,4.363,2.006,7.068c0,4.4-1.775,7.775-5.328,10.124
				c-2.008,1.101-4.252,1.65-6.734,1.65h-0.223c-1.904,0-3.59-0.461-5.063-1.383V525.884z M550.431,505.814
				c0-2.557-0.93-4.43-2.789-5.619c-0.832-0.445-1.701-0.669-2.607-0.669h-0.447c-2.17,0-3.783,1.146-4.838,3.435
				c-0.297,0.937-0.445,1.813-0.445,2.631v0.334c0,2.603,1.055,4.468,3.166,5.598c0.891,0.342,1.672,0.513,2.342,0.513
				c2.645,0,4.43-1.375,5.352-4.125C550.341,506.975,550.431,506.275,550.431,505.814z M546.751,516.117l9.299,9.767h-6.914
				l-9.297-9.767H546.751z"/>
			<path d="M564.913,495.791c0.721,0.707,1.082,1.565,1.082,2.576c0,0.996-0.361,1.851-1.082,2.564
				c-0.721,0.713-1.594,1.07-2.619,1.07c-1.012,0-1.877-0.357-2.6-1.07c-0.721-0.714-1.08-1.568-1.08-2.564
				c0-1.011,0.359-1.869,1.08-2.576c0.723-0.705,1.588-1.059,2.6-1.059C563.319,494.732,564.192,495.086,564.913,495.791z
				 M558.927,503.161h6.934v22.678l-6.846,0.022l-0.088-15.787V503.161z"/>
			<path d="M579.218,503.05h0.268c4.014,0,7.113,1.375,9.299,4.125c-0.031,0-1.688,1.175-4.973,3.523h-0.045
				c-1.115-1.531-2.58-2.297-4.393-2.297c-2.557,0-4.273,1.323-5.15,3.969c-0.18,0.729-0.268,1.442-0.268,2.142
				c0,2.586,1.031,4.423,3.1,5.508c0.713,0.282,1.412,0.423,2.096,0.423h0.379c1.992,0,3.492-0.921,4.504-2.765h0.045l5.039,3.635
				c-2.141,3.032-5.426,4.549-9.855,4.549c-5.174,0-8.779-2.178-10.814-6.533c-0.611-1.636-0.916-3.264-0.916-4.884
				c0-4.355,1.77-7.634,5.309-9.834C574.714,503.57,576.839,503.05,579.218,503.05z"/>
			<path d="M597.659,504.61c1.457-0.921,3.129-1.382,5.018-1.382h0.223c2.096,0,3.998,0.394,5.707,1.182
				c4.193,2.096,6.289,5.724,6.289,10.882v10.524h-6.623v-9.588c0-0.357,0.016-0.907,0.045-1.65h-0.045
				c0-1.546-0.52-2.929-1.561-4.147c-1.057-1.115-2.379-1.673-3.969-1.673c-0.67,0-1.443,0.172-2.32,0.514
				c-2.109,1.13-3.166,2.987-3.166,5.574v11.016h-6.578c0.029-11.729,0.045-22.373,0.045-31.932v-0.045h6.936V504.61z"/>
			<path d="M623.413,525.884h-6.957V505.48c0-3.954,1.523-7.091,4.572-9.41c2.035-1.441,4.57-2.163,7.604-2.163
				c4.459,0,7.834,1.613,10.123,4.839c1.338,2.007,2.008,4.363,2.008,7.068c0,4.4-1.777,7.775-5.33,10.124
				c-2.006,1.101-4.252,1.65-6.734,1.65h-0.223c-1.902,0-3.59-0.461-5.063-1.383V525.884z M634.14,505.814
				c0-2.557-0.93-4.43-2.787-5.619c-0.834-0.445-1.703-0.669-2.609-0.669h-0.445c-2.172,0-3.785,1.146-4.84,3.435
				c-0.297,0.937-0.445,1.813-0.445,2.631v0.334c0,2.603,1.055,4.468,3.166,5.598c0.893,0.342,1.672,0.513,2.342,0.513
				c2.645,0,4.43-1.375,5.352-4.125C634.05,506.975,634.14,506.275,634.14,505.814z"/>
			<path d="M651.31,502.782c4.607,0,7.588,1.509,8.941,4.526c0.461,1.323,0.691,2.579,0.691,3.769v6.868
				c0,3.151-1.852,5.522-5.553,7.113c-1.605,0.535-3.203,0.803-4.793,0.803c-5.561,0-9.047-1.747-10.459-5.24
				c-0.252-0.817-0.379-1.591-0.379-2.319v-0.646c0-2.884,1.383-4.823,4.148-5.82c1.561-0.46,3.359-0.69,5.395-0.69h5.553
				c0.074,0,0.111-0.037,0.111-0.112c0-2.199-1.545-3.3-4.637-3.3h-0.646c-2.543,0-4.646,0.401-6.311,1.204v-5.084
				C645.333,503.139,647.979,502.782,651.31,502.782z M645.735,517.834c0,1.427,1.24,2.289,3.723,2.587h1.139
				c2.154,0,3.574-0.706,4.258-2.119c0.074-0.282,0.111-0.587,0.111-0.914v-1.984h-5.24c-1.977,0-3.211,0.409-3.701,1.227
				C645.831,516.972,645.735,517.373,645.735,517.834z"/>
			<path d="M669.104,502.113h8.875v6.601h-8.986v0.044h0.111v5.374c0,0.818,0.148,1.695,0.445,2.632
				c1.055,2.305,2.676,3.456,4.861,3.456h0.445c0.58,0,1.227-0.111,1.939-0.334c2.32-1.056,3.48-3.107,3.48-6.155h6.645
				c0,2.334-0.447,4.386-1.338,6.155c-2.215,3.983-5.828,5.976-10.838,5.976c-3.047,0-5.604-0.729-7.67-2.186
				c-3.049-2.318-4.572-5.463-4.572-9.432v-20.516h6.602V502.113z"/>
			<path d="M695.46,504.61c1.457-0.921,3.131-1.382,5.018-1.382h0.223c2.098,0,4,0.394,5.709,1.182
				c4.193,2.096,6.289,5.724,6.289,10.882v10.524h-6.623v-9.588c0-0.357,0.014-0.907,0.045-1.65h-0.045
				c0-1.546-0.521-2.929-1.561-4.147c-1.057-1.115-2.379-1.673-3.969-1.673c-0.67,0-1.443,0.172-2.32,0.514
				c-2.111,1.13-3.166,2.987-3.166,5.574v11.016h-6.578c0.029-11.729,0.045-22.373,0.045-31.932v-0.045h6.934V504.61z"/>
		</g>
	</g>
	<g>
		<path d="M263.715,488.019c0,9.055-7.34,16.395-16.395,16.395H138.016c-9.057,0-16.396-7.34-16.396-16.395V378.714
			c0-9.057,7.34-16.396,16.396-16.396H247.32c9.055,0,16.395,7.34,16.395,16.396V488.019z"/>
		<polygon points="153.299,460.224 153.098,462.011 151.99,471.866 156.631,474.544 164.641,468.669 166.094,467.603 
			166.094,467.601 153.301,460.222 		"/>
		<circle cx="173.643" cy="408.563" r="10.924"/>
		<path fill="#FFFFFF" d="M195.779,413.136v-4.572c0-12.354-10.016-22.369-22.369-22.369s-22.369,10.016-22.369,22.369
			c0,10.891,7.783,19.959,18.09,21.955l-14.383,24.582l-2.666,4.559l-0.025,0.043c-0.063,0.107-0.105,0.18-0.07,0.297l-0.139,1.291
			l-1.982,18.551c-0.006,0.189-0.006,0.189,0.123,0.412l0.111,0.162l0.313,0.082c0.824,0.086,11.768-8.268,15.5-11.094
			c0.465-0.352,0.826-0.623,1.033-0.777c0.027-0.049,0.086-0.086,0.143-0.131c0.029-0.023,0.059-0.043,0.08-0.078l2.619-4.539
			l8.574-14.672v31.33h8.973v-49.9C187.334,423.548,190.635,417.235,195.779,413.136z M166.094,467.603l-1.453,1.066l-8.01,5.875
			l-4.641-2.678l1.107-9.855l0.201-1.787l0.002-0.002l12.793,7.379V467.603z M173.643,419.487c-6.033,0-10.926-4.891-10.926-10.924
			s4.893-10.924,10.926-10.924s10.924,4.891,10.924,10.924S179.676,419.487,173.643,419.487z"/>
		<circle cx="211.361" cy="430.888" r="10.758"/>
		<path fill="#FFFFFF" d="M244.467,459.116l-12.24-14.582c-1.973,3.834-5.23,6.896-9.205,8.621l11.799,14.059
			c1.174,1.398,3.262,1.58,4.66,0.406l4.578-3.842C245.459,462.603,245.641,460.517,244.467,459.116z"/>
		<path fill="#FFFFFF" d="M211.361,409.372c-5.186,0-9.949,1.797-13.711,4.795c-5.066,4.035-8.316,10.252-8.316,17.232v49.137h8.316
			h8.834v-27.658c1.57,0.355,3.201,0.549,4.877,0.549c12.164,0,22.027-9.863,22.027-22.027
			C233.389,419.233,223.525,409.372,211.361,409.372z M211.361,441.646c-5.941,0-10.758-4.816-10.758-10.758
			s4.816-10.758,10.758-10.758c5.939,0,10.756,4.816,10.756,10.758S217.301,441.646,211.361,441.646z"/>
		<path fill="#FFFFFF" stroke="#FFFFFF" stroke-miterlimit="10" d="M203.473,430.927c0,2.051,0.688,3.936,1.834,5.455l1.303-1.303
			c-0.824-1.178-1.313-2.607-1.313-4.152c0-2.029,0.836-3.859,2.18-5.176l-1.291-1.289
			C204.512,426.106,203.473,428.394,203.473,430.927z"/>
		<g>
			<path d="M283.478,450.318h-7.953v-23.326c0-4.521,1.741-8.106,5.226-10.758c2.328-1.648,5.227-2.473,8.693-2.473
				c5.099,0,8.956,1.845,11.573,5.532c1.53,2.294,2.295,4.988,2.295,8.081c0,5.031-2.031,8.889-6.093,11.573
				c-2.295,1.259-4.861,1.887-7.699,1.887h-0.255c-2.176,0-4.104-0.526-5.787-1.58V450.318z M295.741,427.375
				c0-2.923-1.063-5.064-3.187-6.424c-0.952-0.511-1.946-0.766-2.983-0.766h-0.51c-2.481,0-4.325,1.31-5.531,3.927
				c-0.341,1.07-0.511,2.073-0.511,3.008v0.382c0,2.975,1.207,5.107,3.62,6.399c1.02,0.391,1.912,0.586,2.677,0.586
				c3.025,0,5.064-1.571,6.118-4.716C295.638,428.7,295.741,427.902,295.741,427.375z M291.534,439.152l10.631,11.166h-7.902
				l-10.631-11.166H291.534z"/>
			<path d="M312.297,415.916c0.824,0.808,1.236,1.789,1.236,2.944c0,1.139-0.412,2.116-1.236,2.932s-1.822,1.224-2.995,1.224
				c-1.156,0-2.146-0.408-2.97-1.224c-0.825-0.815-1.236-1.793-1.236-2.932c0-1.155,0.411-2.137,1.236-2.944
				c0.824-0.808,1.813-1.211,2.97-1.211C310.475,414.705,311.473,415.108,312.297,415.916z M305.453,424.341h7.929v25.927
				l-7.826,0.025l-0.103-18.049V424.341z"/>
			<path d="M328.652,424.214h0.306c4.589,0,8.132,1.572,10.63,4.716c-0.034,0-1.929,1.343-5.685,4.028h-0.051
				c-1.274-1.75-2.949-2.626-5.022-2.626c-2.923,0-4.886,1.513-5.889,4.538c-0.204,0.833-0.306,1.648-0.306,2.447
				c0,2.957,1.181,5.056,3.543,6.297c0.816,0.322,1.615,0.484,2.396,0.484h0.434c2.277,0,3.993-1.054,5.149-3.161h0.051l5.762,4.155
				c-2.447,3.467-6.203,5.2-11.268,5.2c-5.915,0-10.036-2.489-12.364-7.47c-0.697-1.869-1.045-3.73-1.045-5.583
				c0-4.979,2.021-8.727,6.067-11.242C323.501,424.809,325.932,424.214,328.652,424.214z"/>
			<path d="M349.734,425.998c1.666-1.054,3.578-1.58,5.736-1.58h0.255c2.396,0,4.571,0.45,6.526,1.351
				c4.792,2.396,7.188,6.544,7.188,12.44v12.033h-7.571V439.28c0-0.408,0.017-1.037,0.051-1.887h-0.051
				c0-1.768-0.595-3.348-1.784-4.741c-1.207-1.275-2.72-1.912-4.538-1.912c-0.765,0-1.648,0.195-2.651,0.586
				c-2.413,1.292-3.619,3.416-3.619,6.373v12.594h-7.521c0.033-13.409,0.051-25.578,0.051-36.506v-0.051h7.928V425.998z"/>
			<path d="M379.178,450.318h-7.953v-23.326c0-4.521,1.741-8.106,5.226-10.758c2.328-1.648,5.227-2.473,8.693-2.473
				c5.099,0,8.956,1.845,11.573,5.532c1.53,2.294,2.295,4.988,2.295,8.081c0,5.031-2.031,8.889-6.093,11.573
				c-2.295,1.259-4.861,1.887-7.699,1.887h-0.255c-2.176,0-4.104-0.526-5.787-1.58V450.318z M391.441,427.375
				c0-2.923-1.063-5.064-3.187-6.424c-0.952-0.511-1.946-0.766-2.983-0.766h-0.51c-2.481,0-4.325,1.31-5.531,3.927
				c-0.341,1.07-0.511,2.073-0.511,3.008v0.382c0,2.975,1.207,5.107,3.62,6.399c1.02,0.391,1.912,0.586,2.677,0.586
				c3.025,0,5.064-1.571,6.118-4.716C391.338,428.7,391.441,427.902,391.441,427.375z"/>
			<path d="M411.07,423.908c5.269,0,8.676,1.725,10.223,5.175c0.526,1.513,0.79,2.948,0.79,4.309v7.852
				c0,3.604-2.116,6.313-6.347,8.132c-1.836,0.612-3.662,0.918-5.48,0.918c-6.357,0-10.342-1.997-11.957-5.991
				c-0.289-0.934-0.433-1.818-0.433-2.65v-0.74c0-3.297,1.58-5.515,4.741-6.653c1.784-0.526,3.841-0.79,6.169-0.79h6.349
				c0.084,0,0.127-0.042,0.127-0.128c0-2.515-1.768-3.772-5.303-3.772h-0.739c-2.906,0-5.312,0.459-7.214,1.377v-5.813
				C404.238,424.315,407.262,423.908,411.07,423.908z M404.697,441.115c0,1.632,1.419,2.618,4.257,2.957h1.301
				c2.464,0,4.087-0.807,4.869-2.421c0.084-0.323,0.127-0.672,0.127-1.046v-2.269h-5.991c-2.26,0-3.671,0.468-4.231,1.402
				C404.807,440.13,404.697,440.589,404.697,441.115z"/>
			<path d="M431.414,423.144h10.145v7.546h-10.273v0.051h0.129v6.144c0,0.935,0.168,1.938,0.51,3.008
				c1.205,2.635,3.059,3.952,5.557,3.952h0.51c0.662,0,1.402-0.128,2.219-0.383c2.65-1.207,3.977-3.552,3.977-7.036h7.596
				c0,2.668-0.51,5.014-1.529,7.036c-2.531,4.555-6.662,6.832-12.389,6.832c-3.484,0-6.408-0.832-8.77-2.498
				c-3.484-2.651-5.227-6.246-5.227-10.784v-23.453h7.547V423.144z"/>
			<path d="M461.545,425.998c1.666-1.054,3.578-1.58,5.736-1.58h0.256c2.396,0,4.57,0.45,6.525,1.351
				c4.793,2.396,7.189,6.544,7.189,12.44v12.033h-7.572V439.28c0-0.408,0.018-1.037,0.051-1.887h-0.051
				c0-1.768-0.594-3.348-1.783-4.741c-1.207-1.275-2.721-1.912-4.539-1.912c-0.764,0-1.648,0.195-2.65,0.586
				c-2.414,1.292-3.619,3.416-3.619,6.373v12.594h-7.521c0.033-13.409,0.051-25.578,0.051-36.506v-0.051h7.928V425.998z"/>
		</g>
	</g>
</g>
<g>
	<path fill="#6086C4" d="M693.771,198.173c0,9.055-7.34,16.395-16.395,16.395H568.071c-9.057,0-16.396-7.34-16.396-16.395V88.869
		c0-9.057,7.34-16.396,16.396-16.396h109.305c9.055,0,16.395,7.34,16.395,16.396V198.173z"/>
	<polygon fill="#6086C4" points="583.354,170.378 583.153,172.166 582.046,182.021 586.687,184.699 594.696,178.824 
		596.149,177.757 596.149,177.755 583.356,170.376 	"/>
	<circle fill="#6086C4" cx="603.698" cy="118.718" r="10.924"/>
	<path fill="#FFFFFF" d="M625.835,123.291v-4.572c0-12.354-10.016-22.369-22.369-22.369s-22.369,10.016-22.369,22.369
		c0,10.891,7.783,19.959,18.09,21.955l-14.383,24.582l-2.666,4.559l-0.025,0.043c-0.063,0.107-0.105,0.18-0.07,0.297l-0.139,1.291
		l-1.982,18.551c-0.006,0.189-0.006,0.189,0.123,0.412l0.111,0.162l0.313,0.082c0.824,0.086,11.768-8.268,15.5-11.094
		c0.465-0.352,0.826-0.623,1.033-0.777c0.027-0.049,0.086-0.086,0.143-0.131c0.029-0.023,0.059-0.043,0.08-0.078l2.619-4.539
		l8.574-14.672v31.33h8.973v-49.9C617.39,133.703,620.69,127.39,625.835,123.291z M596.149,177.757l-1.453,1.066l-8.01,5.875
		l-4.641-2.678l1.107-9.855l0.201-1.787l0.002-0.002l12.793,7.379V177.757z M603.698,129.642c-6.033,0-10.926-4.891-10.926-10.924
		s4.893-10.924,10.926-10.924s10.924,4.891,10.924,10.924S609.731,129.642,603.698,129.642z"/>
	<circle fill="#6086C4" cx="641.417" cy="141.042" r="10.758"/>
	<path fill="#FFFFFF" d="M674.522,169.271l-12.24-14.582c-1.973,3.834-5.23,6.896-9.205,8.621l11.799,14.059
		c1.174,1.398,3.262,1.58,4.66,0.406l4.578-3.842C675.515,172.757,675.696,170.671,674.522,169.271z"/>
	<path fill="#FFFFFF" d="M641.417,119.527c-5.186,0-9.949,1.797-13.711,4.795c-5.066,4.035-8.316,10.252-8.316,17.232v49.137h8.316
		h8.834v-27.658c1.57,0.355,3.201,0.549,4.877,0.549c12.164,0,22.027-9.863,22.027-22.027
		C663.444,129.388,653.581,119.527,641.417,119.527z M641.417,151.8c-5.941,0-10.758-4.816-10.758-10.758
		s4.816-10.758,10.758-10.758c5.939,0,10.756,4.816,10.756,10.758S647.356,151.8,641.417,151.8z"/>
	<path fill="#FFFFFF" stroke="#FFFFFF" stroke-miterlimit="10" d="M633.528,141.082c0,2.051,0.688,3.936,1.834,5.455l1.303-1.303
		c-0.824-1.178-1.313-2.607-1.313-4.152c0-2.029,0.836-3.859,2.18-5.176l-1.291-1.289
		C634.567,136.261,633.528,138.548,633.528,141.082z"/>
	<g>
		<g>
			<path fill="#6086C4" d="M539.704,263.397h-6.957v-20.403c0-3.954,1.523-7.091,4.57-9.41c2.037-1.441,4.572-2.163,7.605-2.163
				c4.459,0,7.834,1.613,10.123,4.839c1.338,2.007,2.006,4.363,2.006,7.068c0,4.4-1.775,7.775-5.328,10.124
				c-2.008,1.101-4.252,1.65-6.734,1.65h-0.223c-1.904,0-3.59-0.461-5.063-1.383V263.397z M550.431,243.328
				c0-2.557-0.93-4.43-2.789-5.619c-0.832-0.445-1.701-0.669-2.607-0.669h-0.447c-2.17,0-3.783,1.146-4.838,3.435
				c-0.297,0.937-0.445,1.813-0.445,2.631v0.334c0,2.603,1.055,4.468,3.166,5.598c0.891,0.342,1.672,0.513,2.342,0.513
				c2.645,0,4.43-1.375,5.352-4.125C550.341,244.488,550.431,243.789,550.431,243.328z M546.751,253.63l9.299,9.767h-6.914
				l-9.297-9.767H546.751z"/>
			<path fill="#6086C4" d="M564.913,233.304c0.721,0.707,1.082,1.565,1.082,2.576c0,0.996-0.361,1.851-1.082,2.564
				c-0.721,0.713-1.594,1.07-2.619,1.07c-1.012,0-1.877-0.357-2.6-1.07c-0.721-0.714-1.08-1.568-1.08-2.564
				c0-1.011,0.359-1.869,1.08-2.576c0.723-0.705,1.588-1.059,2.6-1.059C563.319,232.246,564.192,232.599,564.913,233.304z
				 M558.927,240.674h6.934v22.678l-6.846,0.022l-0.088-15.787V240.674z"/>
			<path fill="#6086C4" d="M579.218,240.563h0.268c4.014,0,7.113,1.375,9.299,4.125c-0.031,0-1.688,1.175-4.973,3.523h-0.045
				c-1.115-1.531-2.58-2.297-4.393-2.297c-2.557,0-4.273,1.323-5.15,3.969c-0.18,0.729-0.268,1.442-0.268,2.142
				c0,2.586,1.031,4.423,3.1,5.508c0.713,0.282,1.412,0.423,2.096,0.423h0.379c1.992,0,3.492-0.921,4.504-2.765h0.045l5.039,3.635
				c-2.141,3.032-5.426,4.549-9.855,4.549c-5.174,0-8.779-2.178-10.814-6.533c-0.611-1.636-0.916-3.264-0.916-4.884
				c0-4.355,1.77-7.634,5.309-9.834C574.714,241.083,576.839,240.563,579.218,240.563z"/>
			<path fill="#6086C4" d="M597.659,242.124c1.457-0.921,3.129-1.382,5.018-1.382h0.223c2.096,0,3.998,0.394,5.707,1.182
				c4.193,2.096,6.289,5.724,6.289,10.882v10.524h-6.623v-9.588c0-0.357,0.016-0.907,0.045-1.65h-0.045
				c0-1.546-0.52-2.929-1.561-4.147c-1.057-1.115-2.379-1.673-3.969-1.673c-0.67,0-1.443,0.172-2.32,0.514
				c-2.109,1.13-3.166,2.987-3.166,5.574v11.016h-6.578c0.029-11.729,0.045-22.373,0.045-31.932v-0.045h6.936V242.124z"/>
			<path fill="#6086C4" d="M623.413,263.397h-6.957v-20.403c0-3.954,1.523-7.091,4.572-9.41c2.035-1.441,4.57-2.163,7.604-2.163
				c4.459,0,7.834,1.613,10.123,4.839c1.338,2.007,2.008,4.363,2.008,7.068c0,4.4-1.777,7.775-5.33,10.124
				c-2.006,1.101-4.252,1.65-6.734,1.65h-0.223c-1.902,0-3.59-0.461-5.063-1.383V263.397z M634.14,243.328
				c0-2.557-0.93-4.43-2.787-5.619c-0.834-0.445-1.703-0.669-2.609-0.669h-0.445c-2.172,0-3.785,1.146-4.84,3.435
				c-0.297,0.937-0.445,1.813-0.445,2.631v0.334c0,2.603,1.055,4.468,3.166,5.598c0.893,0.342,1.672,0.513,2.342,0.513
				c2.645,0,4.43-1.375,5.352-4.125C634.05,244.488,634.14,243.789,634.14,243.328z"/>
			<path fill="#6086C4" d="M651.31,240.295c4.607,0,7.588,1.509,8.941,4.526c0.461,1.323,0.691,2.579,0.691,3.769v6.868
				c0,3.151-1.852,5.522-5.553,7.113c-1.605,0.535-3.203,0.803-4.793,0.803c-5.561,0-9.047-1.747-10.459-5.24
				c-0.252-0.817-0.379-1.591-0.379-2.319v-0.646c0-2.884,1.383-4.823,4.148-5.82c1.561-0.46,3.359-0.69,5.395-0.69h5.553
				c0.074,0,0.111-0.037,0.111-0.112c0-2.199-1.545-3.3-4.637-3.3h-0.646c-2.543,0-4.646,0.401-6.311,1.204v-5.084
				C645.333,240.652,647.979,240.295,651.31,240.295z M645.735,255.347c0,1.427,1.24,2.289,3.723,2.587h1.139
				c2.154,0,3.574-0.706,4.258-2.119c0.074-0.282,0.111-0.587,0.111-0.914v-1.984h-5.24c-1.977,0-3.211,0.409-3.701,1.227
				C645.831,254.485,645.735,254.886,645.735,255.347z"/>
			<path fill="#6086C4" d="M669.104,239.626h8.875v6.601h-8.986v0.044h0.111v5.374c0,0.818,0.148,1.695,0.445,2.632
				c1.055,2.305,2.676,3.456,4.861,3.456h0.445c0.58,0,1.227-0.111,1.939-0.334c2.32-1.056,3.48-3.107,3.48-6.155h6.645
				c0,2.334-0.447,4.386-1.338,6.155c-2.215,3.983-5.828,5.976-10.838,5.976c-3.047,0-5.604-0.729-7.67-2.186
				c-3.049-2.318-4.572-5.463-4.572-9.432v-20.516h6.602V239.626z"/>
			<path fill="#6086C4" d="M695.46,242.124c1.457-0.921,3.131-1.382,5.018-1.382h0.223c2.098,0,4,0.394,5.709,1.182
				c4.193,2.096,6.289,5.724,6.289,10.882v10.524h-6.623v-9.588c0-0.357,0.014-0.907,0.045-1.65h-0.045
				c0-1.546-0.521-2.929-1.561-4.147c-1.057-1.115-2.379-1.673-3.969-1.673c-0.67,0-1.443,0.172-2.32,0.514
				c-2.111,1.13-3.166,2.987-3.166,5.574v11.016h-6.578c0.029-11.729,0.045-22.373,0.045-31.932v-0.045h6.934V242.124z"/>
		</g>
	</g>
</g>
<g>
	<path fill="#6086C4" d="M263.715,225.532c0,9.055-7.34,16.395-16.395,16.395H138.016c-9.057,0-16.396-7.34-16.396-16.395V116.227
		c0-9.057,7.34-16.396,16.396-16.396H247.32c9.055,0,16.395,7.34,16.395,16.396V225.532z"/>
	<polygon fill="#6086C4" points="153.299,197.737 153.098,199.524 151.99,209.379 156.631,212.057 164.641,206.182 166.094,205.116 
		166.094,205.114 153.301,197.735 	"/>
	<circle fill="#6086C4" cx="173.643" cy="146.077" r="10.924"/>
	<path fill="#FFFFFF" d="M195.779,150.649v-4.572c0-12.354-10.016-22.369-22.369-22.369s-22.369,10.016-22.369,22.369
		c0,10.891,7.783,19.959,18.09,21.955l-14.383,24.582l-2.666,4.559l-0.025,0.043c-0.063,0.107-0.105,0.18-0.07,0.297l-0.139,1.291
		l-1.982,18.551c-0.006,0.189-0.006,0.189,0.123,0.412l0.111,0.162l0.313,0.082c0.824,0.086,11.768-8.268,15.5-11.094
		c0.465-0.352,0.826-0.623,1.033-0.777c0.027-0.049,0.086-0.086,0.143-0.131c0.029-0.023,0.059-0.043,0.08-0.078l2.619-4.539
		l8.574-14.672v31.33h8.973v-49.9C187.334,161.061,190.635,154.749,195.779,150.649z M166.094,205.116l-1.453,1.066l-8.01,5.875
		l-4.641-2.678l1.107-9.855l0.201-1.787l0.002-0.002l12.793,7.379V205.116z M173.643,157c-6.033,0-10.926-4.891-10.926-10.924
		s4.893-10.924,10.926-10.924s10.924,4.891,10.924,10.924S179.676,157,173.643,157z"/>
	<circle fill="#6086C4" cx="211.361" cy="168.401" r="10.758"/>
	<path fill="#FFFFFF" d="M244.467,196.629l-12.24-14.582c-1.973,3.834-5.23,6.896-9.205,8.621l11.799,14.059
		c1.174,1.398,3.262,1.58,4.66,0.406l4.578-3.842C245.459,200.116,245.641,198.03,244.467,196.629z"/>
	<path fill="#FFFFFF" d="M211.361,146.885c-5.186,0-9.949,1.797-13.711,4.795c-5.066,4.035-8.316,10.252-8.316,17.232v49.137h8.316
		h8.834v-27.658c1.57,0.355,3.201,0.549,4.877,0.549c12.164,0,22.027-9.863,22.027-22.027
		C233.389,156.747,223.525,146.885,211.361,146.885z M211.361,179.159c-5.941,0-10.758-4.816-10.758-10.758
		s4.816-10.758,10.758-10.758c5.939,0,10.756,4.816,10.756,10.758S217.301,179.159,211.361,179.159z"/>
	<path fill="#FFFFFF" stroke="#FFFFFF" stroke-miterlimit="10" d="M203.473,168.44c0,2.051,0.688,3.936,1.834,5.455l1.303-1.303
		c-0.824-1.178-1.313-2.607-1.313-4.152c0-2.029,0.836-3.859,2.18-5.176l-1.291-1.289
		C204.512,163.62,203.473,165.907,203.473,168.44z"/>
	<g>
		<g>
			<path fill="#6086C4" d="M283.478,187.832h-7.953v-23.326c0-4.521,1.741-8.106,5.226-10.758c2.328-1.648,5.227-2.473,8.693-2.473
				c5.099,0,8.956,1.845,11.573,5.532c1.53,2.294,2.295,4.988,2.295,8.081c0,5.031-2.031,8.889-6.093,11.573
				c-2.295,1.259-4.861,1.887-7.699,1.887h-0.255c-2.176,0-4.104-0.526-5.787-1.58V187.832z M295.741,164.888
				c0-2.923-1.063-5.064-3.187-6.424c-0.952-0.511-1.946-0.766-2.983-0.766h-0.51c-2.481,0-4.325,1.31-5.531,3.927
				c-0.341,1.07-0.511,2.073-0.511,3.008v0.382c0,2.975,1.207,5.107,3.62,6.399c1.02,0.391,1.912,0.586,2.677,0.586
				c3.025,0,5.064-1.571,6.118-4.716C295.638,166.213,295.741,165.416,295.741,164.888z M291.534,176.666l10.631,11.166h-7.902
				l-10.631-11.166H291.534z"/>
			<path fill="#6086C4" d="M312.297,153.429c0.824,0.808,1.236,1.789,1.236,2.944c0,1.139-0.412,2.116-1.236,2.932
				s-1.822,1.224-2.995,1.224c-1.156,0-2.146-0.408-2.97-1.224c-0.825-0.815-1.236-1.793-1.236-2.932
				c0-1.155,0.411-2.137,1.236-2.944c0.824-0.808,1.813-1.211,2.97-1.211C310.475,152.218,311.473,152.622,312.297,153.429z
				 M305.453,161.854h7.929v25.927l-7.826,0.025l-0.103-18.049V161.854z"/>
			<path fill="#6086C4" d="M328.652,161.727h0.306c4.589,0,8.132,1.572,10.63,4.716c-0.034,0-1.929,1.343-5.685,4.028h-0.051
				c-1.274-1.75-2.949-2.626-5.022-2.626c-2.923,0-4.886,1.513-5.889,4.538c-0.204,0.833-0.306,1.648-0.306,2.447
				c0,2.957,1.181,5.056,3.543,6.297c0.816,0.322,1.615,0.484,2.396,0.484h0.434c2.277,0,3.993-1.054,5.149-3.161h0.051l5.762,4.155
				c-2.447,3.467-6.203,5.2-11.268,5.2c-5.915,0-10.036-2.489-12.364-7.47c-0.697-1.869-1.045-3.73-1.045-5.583
				c0-4.979,2.021-8.727,6.067-11.242C323.501,162.322,325.932,161.727,328.652,161.727z"/>
			<path fill="#6086C4" d="M349.734,163.511c1.666-1.054,3.578-1.58,5.736-1.58h0.255c2.396,0,4.571,0.45,6.526,1.351
				c4.792,2.396,7.188,6.544,7.188,12.44v12.033h-7.571v-10.962c0-0.408,0.017-1.037,0.051-1.887h-0.051
				c0-1.768-0.595-3.348-1.784-4.741c-1.207-1.275-2.72-1.912-4.538-1.912c-0.765,0-1.648,0.195-2.651,0.586
				c-2.413,1.292-3.619,3.416-3.619,6.373v12.594h-7.521c0.033-13.409,0.051-25.578,0.051-36.506v-0.051h7.928V163.511z"/>
			<path fill="#6086C4" d="M379.178,187.832h-7.953v-23.326c0-4.521,1.741-8.106,5.226-10.758c2.328-1.648,5.227-2.473,8.693-2.473
				c5.099,0,8.956,1.845,11.573,5.532c1.53,2.294,2.295,4.988,2.295,8.081c0,5.031-2.031,8.889-6.093,11.573
				c-2.295,1.259-4.861,1.887-7.699,1.887h-0.255c-2.176,0-4.104-0.526-5.787-1.58V187.832z M391.441,164.888
				c0-2.923-1.063-5.064-3.187-6.424c-0.952-0.511-1.946-0.766-2.983-0.766h-0.51c-2.481,0-4.325,1.31-5.531,3.927
				c-0.341,1.07-0.511,2.073-0.511,3.008v0.382c0,2.975,1.207,5.107,3.62,6.399c1.02,0.391,1.912,0.586,2.677,0.586
				c3.025,0,5.064-1.571,6.118-4.716C391.338,166.213,391.441,165.416,391.441,164.888z"/>
			<path fill="#6086C4" d="M411.07,161.421c5.269,0,8.676,1.725,10.223,5.175c0.526,1.513,0.79,2.948,0.79,4.309v7.852
				c0,3.604-2.116,6.313-6.347,8.132c-1.836,0.612-3.662,0.918-5.48,0.918c-6.357,0-10.342-1.997-11.957-5.991
				c-0.289-0.934-0.433-1.818-0.433-2.65v-0.74c0-3.297,1.58-5.515,4.741-6.653c1.784-0.526,3.841-0.79,6.169-0.79h6.349
				c0.084,0,0.127-0.042,0.127-0.128c0-2.515-1.768-3.772-5.303-3.772h-0.739c-2.906,0-5.312,0.459-7.214,1.377v-5.813
				C404.238,161.829,407.262,161.421,411.07,161.421z M404.697,178.628c0,1.632,1.419,2.618,4.257,2.957h1.301
				c2.464,0,4.087-0.807,4.869-2.421c0.084-0.323,0.127-0.672,0.127-1.046v-2.269h-5.991c-2.26,0-3.671,0.468-4.231,1.402
				C404.807,177.643,404.697,178.102,404.697,178.628z"/>
			<path fill="#6086C4" d="M431.414,160.657h10.145v7.546h-10.273v0.051h0.129v6.144c0,0.935,0.168,1.938,0.51,3.008
				c1.205,2.635,3.059,3.952,5.557,3.952h0.51c0.662,0,1.402-0.128,2.219-0.383c2.65-1.207,3.977-3.552,3.977-7.036h7.596
				c0,2.668-0.51,5.014-1.529,7.036c-2.531,4.555-6.662,6.832-12.389,6.832c-3.484,0-6.408-0.832-8.77-2.498
				c-3.484-2.651-5.227-6.246-5.227-10.784v-23.453h7.547V160.657z"/>
			<path fill="#6086C4" d="M461.545,163.511c1.666-1.054,3.578-1.58,5.736-1.58h0.256c2.396,0,4.57,0.45,6.525,1.351
				c4.793,2.396,7.189,6.544,7.189,12.44v12.033h-7.572v-10.962c0-0.408,0.018-1.037,0.051-1.887h-0.051
				c0-1.768-0.594-3.348-1.783-4.741c-1.207-1.275-2.721-1.912-4.539-1.912c-0.764,0-1.648,0.195-2.65,0.586
				c-2.414,1.292-3.619,3.416-3.619,6.373v12.594h-7.521c0.033-13.409,0.051-25.578,0.051-36.506v-0.051h7.928V163.511z"/>
		</g>
	</g>
</g>
<g>
	<g>
		<g>
			<path fill="#6086C4" d="M430.397,695.019c4.044,0,6.66,1.324,7.851,3.975c0.403,1.16,0.605,2.264,0.605,3.309v6.031
				c0,2.766-1.625,4.846-4.875,6.242c-1.408,0.471-2.813,0.707-4.207,0.707c-4.883,0-7.943-1.535-9.183-4.604
				c-0.222-0.717-0.331-1.395-0.331-2.033v-0.568c0-2.533,1.211-4.236,3.64-5.109c1.369-0.404,2.948-0.607,4.736-0.607h4.874
				c0.065,0,0.1-0.033,0.1-0.098c0-1.932-1.358-2.896-4.073-2.896h-0.567c-2.231,0-4.078,0.352-5.54,1.057v-4.463
				C425.151,695.333,427.473,695.019,430.397,695.019z M425.504,708.231c0,1.256,1.088,2.012,3.268,2.273h1
				c1.893,0,3.137-0.621,3.736-1.859c0.065-0.25,0.1-0.518,0.1-0.805v-1.742h-4.601c-1.736,0-2.819,0.359-3.25,1.078
				C425.588,707.478,425.504,707.829,425.504,708.231z"/>
			<path fill="#6086C4" d="M440.224,715.282v-9.438c0-2.416,0.594-4.514,1.782-6.303c2.049-2.871,5.063-4.307,9.044-4.307
				c2.7,0,4.966,0.641,6.793,1.918c2.715,2.074,4.071,4.877,4.071,8.396v9.691h-5.854v-9.592c0-0.73-0.13-1.51-0.39-2.33
				c-0.941-2.047-2.381-3.072-4.327-3.072h-0.392c-1.514,0-2.773,0.627-3.779,1.879c-0.69,1.213-1.035,2.342-1.035,3.385l0.038,9.73
				h-0.392C445.614,715.241,443.761,715.255,440.224,715.282z"/>
			<path fill="#6086C4" d="M468.817,688.882c0.629,0.621,0.944,1.373,0.944,2.262c0,0.875-0.315,1.625-0.944,2.254
				c-0.636,0.623-1.401,0.936-2.305,0.936c-0.887,0-1.646-0.313-2.28-0.936c-0.635-0.629-0.948-1.379-0.948-2.254
				c0-0.889,0.313-1.641,0.948-2.262c0.634-0.621,1.394-0.93,2.28-0.93C467.416,687.952,468.182,688.261,468.817,688.882z
				 M463.56,695.353h6.085v19.91l-6.008,0.02l-0.077-13.863V695.353z"/>
			<path fill="#6086C4" d="M471.115,715.282v-9.438c0-2.416,0.593-4.514,1.78-6.303c2.048-2.871,5.063-4.307,9.043-4.307
				c2.704,0,4.966,0.641,6.793,1.918c2.715,2.074,4.074,4.877,4.074,8.396v9.691h-5.854v-9.592c0-0.73-0.131-1.51-0.394-2.33
				c-0.935-2.047-2.382-3.072-4.324-3.072h-0.39c-1.517,0-2.776,0.627-3.779,1.879c-0.693,1.213-1.038,2.342-1.038,3.385l0.038,9.73
				h-0.392C476.505,715.241,474.65,715.255,471.115,715.282z M486.755,715.282v-9.438c0-2.416,0.595-4.514,1.781-6.303
				c2.051-2.871,5.063-4.307,9.046-4.307c2.701,0,4.965,0.641,6.793,1.918c2.713,2.074,4.071,4.877,4.071,8.396v9.691h-5.854v-9.592
				c0-0.73-0.13-1.51-0.389-2.33c-0.942-2.047-2.384-3.072-4.329-3.072h-0.392c-1.514,0-2.771,0.627-3.777,1.879
				c-0.69,1.213-1.038,2.342-1.038,3.385l0.041,9.73h-0.394C492.146,715.241,490.292,715.255,486.755,715.282z"/>
			<path fill="#6086C4" d="M519.956,695.019c4.045,0,6.662,1.324,7.85,3.975c0.404,1.16,0.606,2.264,0.606,3.309v6.031
				c0,2.766-1.623,4.846-4.872,6.242c-1.411,0.471-2.813,0.707-4.212,0.707c-4.879,0-7.939-1.535-9.181-4.604
				c-0.222-0.717-0.331-1.395-0.331-2.033v-0.568c0-2.533,1.211-4.236,3.641-5.109c1.369-0.404,2.95-0.607,4.737-0.607h4.875
				c0.065,0,0.098-0.033,0.098-0.098c0-1.932-1.356-2.896-4.072-2.896h-0.567c-2.233,0-4.078,0.352-5.538,1.057v-4.463
				C514.711,695.333,517.034,695.019,519.956,695.019z M515.063,708.231c0,1.256,1.088,2.012,3.267,2.273h0.999
				c1.895,0,3.141-0.621,3.741-1.859c0.065-0.25,0.098-0.518,0.098-0.805v-1.742h-4.599c-1.737,0-2.821,0.359-3.253,1.078
				C515.148,707.478,515.063,707.829,515.063,708.231z"/>
			<path fill="#6086C4" d="M535.579,694.433h7.788v5.793h-7.888v0.039h0.1v4.719c0,0.719,0.13,1.488,0.39,2.309
				c0.926,2.025,2.349,3.035,4.268,3.035h0.392c0.509,0,1.076-0.098,1.703-0.293c2.036-0.926,3.054-2.729,3.054-5.402h5.834
				c0,2.047-0.391,3.848-1.174,5.402c-1.944,3.5-5.117,5.248-9.515,5.248c-2.675,0-4.92-0.643-6.734-1.92
				c-2.676-2.035-4.012-4.795-4.012-8.281v-18.01h5.795V694.433z"/>
			<path fill="#6086C4" d="M562.867,695.196h0.234c4.553,0,7.733,1.949,9.534,5.854c0.496,1.369,0.742,2.766,0.742,4.188
				c0,3.656-1.396,6.455-4.188,8.398c-1.735,1.098-3.831,1.646-6.286,1.646c-4.54,0-7.709-1.92-9.512-5.76
				c-0.534-1.432-0.801-2.863-0.801-4.285c0-3.834,1.551-6.727,4.659-8.672C558.907,695.651,560.78,695.196,562.867,695.196z
				 M558.248,705.278c0,2.283,0.912,3.9,2.741,4.854c0.625,0.262,1.238,0.393,1.838,0.393h0.313c1.332,0,2.447-0.504,3.348-1.508
				c0.82-1.006,1.232-2.25,1.232-3.738v-0.082c0-2.279-0.88-3.887-2.643-4.813c-0.69-0.313-1.383-0.473-2.073-0.473
				c-2.244,0-3.753,1.166-4.523,3.486C558.325,704.036,558.248,704.661,558.248,705.278z"/>
			<path fill="#6086C4" d="M580.877,696.507c1.29-0.809,2.767-1.213,4.424-1.213h0.195c0.954,0,1.911,0.098,2.878,0.295v5.557
				c-0.926-0.65-1.932-0.977-3.017-0.977c-0.585,0-1.271,0.143-2.053,0.432c-1.841,1.002-2.762,2.641-2.762,4.91v9.689h-5.793
				c0.025-10.322,0.039-16.99,0.039-20.004v-0.041h6.088V696.507z"/>
		</g>
	</g>
	<g>
		<g>
			<circle fill="#FFFFFF" cx="268.589" cy="595.438" r="11.176"/>
			<circle fill="none" cx="268.589" cy="595.438" r="11.176"/>
			<path fill="#6086C4" d="M245.943,595.437v73.623h17.817v-32.047l8.771,15.01l2.678,4.643c0.023,0.037,0.053,0.057,0.082,0.08
				c0.059,0.047,0.119,0.082,0.146,0.135c0.211,0.156,0.581,0.434,1.055,0.793c3.821,2.893,15.015,11.438,15.857,11.35l0.32-0.082
				l0.115-0.166c0.131-0.229,0.131-0.229,0.124-0.422l-2.026-18.979l-0.143-1.32c0.035-0.119-0.009-0.193-0.072-0.305l-0.025-0.043
				l-2.729-4.664l-14.713-25.145c10.543-2.043,18.506-11.32,18.506-22.461c0-12.637-10.246-22.881-22.884-22.881
				C256.188,572.556,245.943,582.8,245.943,595.437z M276.31,655.829l13.087-7.549v0.002l0.206,1.83l1.133,10.08l-4.746,2.74
				l-8.193-6.01l-1.486-1.092V655.829z M257.413,595.437c0-6.17,5.002-11.174,11.176-11.174c6.171,0,11.176,5.004,11.176,11.174
				c0,6.174-5.005,11.178-11.176,11.178C262.415,606.614,257.413,601.61,257.413,595.437z"/>
		</g>
		<g>
			<path fill="#6086C4" d="M310.524,608.784c1.444,1.414,2.166,3.133,2.166,5.158c0,1.994-0.722,3.707-2.166,5.135
				c-1.445,1.43-3.193,2.145-5.248,2.145c-2.025,0-3.76-0.715-5.204-2.145c-1.444-1.428-2.166-3.141-2.166-5.135
				c0-2.025,0.722-3.744,2.166-5.158c1.444-1.416,3.179-2.123,5.204-2.123C307.331,606.661,309.079,607.368,310.524,608.784z
				 M298.53,623.546h13.895v45.428l-13.714,0.043l-0.181-31.623V623.546z"/>
			<path fill="#6086C4" d="M339.18,623.321h0.536c8.041,0,14.249,2.756,18.626,8.264c-0.062,0-3.38,2.352-9.962,7.059h-0.088
				c-2.233-3.066-5.167-4.602-8.801-4.602c-5.122,0-8.56,2.65-10.318,7.949c-0.356,1.461-0.534,2.891-0.534,4.291
				c0,5.182,2.067,8.857,6.206,11.035c1.432,0.563,2.831,0.846,4.199,0.846h0.762c3.989,0,6.995-1.846,9.022-5.539h0.088
				l10.097,7.281c-4.289,6.074-10.87,9.111-19.744,9.111c-10.363,0-17.585-4.361-21.664-13.088
				c-1.221-3.275-1.831-6.537-1.831-9.783c0-8.725,3.542-15.291,10.632-19.695C330.155,624.364,334.415,623.321,339.18,623.321z"/>
			<path fill="#6086C4" d="M376.12,626.45c2.919-1.848,6.269-2.77,10.051-2.77h0.446c4.199,0,8.01,0.787,11.436,2.367
				c8.396,4.197,12.596,11.463,12.596,21.797v21.084h-13.267v-19.207c0-0.715,0.028-1.818,0.09-3.307h-0.09
				c0-3.096-1.043-5.863-3.126-8.309c-2.116-2.232-4.765-3.348-7.952-3.348c-1.34,0-2.888,0.338-4.645,1.025
				c-4.229,2.264-6.342,5.984-6.342,11.166v22.066H362.14c0.059-23.494,0.089-44.816,0.089-63.965v-0.088h13.892V626.45z"/>
			<path fill="#6086C4" d="M467.144,625.126c8.764,0,14.433,2.867,17.005,8.609c0.875,2.516,1.314,4.9,1.314,7.168v13.059
				c0,5.994-3.521,10.506-10.56,13.525c-3.054,1.02-6.092,1.529-9.118,1.529c-10.575,0-17.202-3.322-19.889-9.965
				c-0.481-1.555-0.722-3.025-0.722-4.41v-1.23c0-5.484,2.63-9.176,7.888-11.07c2.969-0.873,6.39-1.311,10.262-1.311h10.563
				c0.14,0,0.21-0.072,0.21-0.215c0-4.184-2.939-6.275-8.821-6.275h-1.228c-4.837,0-8.838,0.764-12.002,2.291v-9.67
				C455.778,625.806,460.808,625.126,467.144,625.126z M456.541,653.749c0,2.717,2.361,4.357,7.082,4.92h2.162
				c4.1,0,6.799-1.342,8.102-4.027c0.14-0.539,0.21-1.117,0.21-1.738v-3.773h-9.966c-3.758,0-6.106,0.775-7.039,2.332
				C456.726,652.11,456.541,652.876,456.541,653.749z"/>
			<path fill="#6086C4" d="M501.05,621.446h17.776v13.221h-18.001v0.092h0.225v10.764c0,1.637,0.296,3.396,0.893,5.27
				c2.113,4.617,5.36,6.928,9.739,6.928h0.893c1.16,0,2.455-0.227,3.886-0.674c4.646-2.113,6.967-6.223,6.967-12.328h13.312
				c0,4.674-0.893,8.785-2.679,12.328c-4.437,7.98-11.675,11.971-21.711,11.971c-6.104,0-11.225-1.457-15.365-4.375
				c-6.104-4.646-9.156-10.945-9.156-18.898v-41.092h13.223V621.446z"/>
			<path fill="#6086C4" d="M553.845,626.45c2.918-1.848,6.271-2.77,10.053-2.77h0.446c4.199,0,8.008,0.787,11.436,2.367
				c8.396,4.197,12.595,11.463,12.595,21.797v21.084h-13.266v-19.207c0-0.715,0.03-1.818,0.087-3.307h-0.087
				c0-3.096-1.042-5.863-3.125-8.309c-2.117-2.232-4.767-3.348-7.953-3.348c-1.34,0-2.888,0.338-4.645,1.025
				c-4.229,2.264-6.342,5.984-6.342,11.166v22.066h-13.178c0.059-23.494,0.089-44.816,0.089-63.965v-0.088h13.89V626.45z"/>
		</g>
		<path fill="#6086C4" stroke="#FFFFFF" stroke-width="1.522" stroke-miterlimit="10" d="M477.377,620.138l-10.135-12.074
			c-2.62,4.549-6.526,8.262-11.225,10.641l9.532,11.359c1.44,1.717,4.002,1.941,5.716,0.5l5.612-4.709
			C478.594,624.413,478.819,621.854,477.377,620.138z"/>
		<path fill="#6086C4" d="M444.306,572.573c-12.629,0-22.868,10.24-22.868,22.867v73.576h17.807v-51.279
			c1.629,0.371,3.319,0.572,5.062,0.572c12.629,0,22.867-10.24,22.867-22.869C467.173,582.813,456.935,572.573,444.306,572.573z"/>
		<circle fill="#FFFFFF" cx="444.307" cy="595.44" r="11.167"/>
		<path fill="#6086C4" d="M434.804,595.567c0,2.41,0.805,4.619,2.153,6.402l1.527-1.527c-0.966-1.383-1.538-3.063-1.538-4.875
			c0-2.385,0.979-4.533,2.557-6.078l-1.515-1.512C436.022,589.907,434.804,592.591,434.804,595.567z"/>
	</g>
</g>
</svg>
